<svg xmlns="http://www.w3.org/2000/svg" xmlns:xlink="http://www.w3.org/1999/xlink" width="1080" zoomAndPan="magnify" viewBox="0 0 810 809.999993" height="1080" preserveAspectRatio="xMidYMid meet" version="1.0"><path stroke-linecap="butt" transform="matrix(0.75, 0, 0, 0.75, 9.13956, 266.761502)" fill="none" stroke-linejoin="miter" d="M 84.095175 207.729466 C 60.938923 201.073216 44.089964 192.896132 33.53788 183.193007 C 22.991005 173.489881 17.720171 161.510714 17.720171 147.260713 C 17.720171 131.135713 24.16288 117.79717 37.053506 107.250295 C 49.94934 96.703419 66.704549 91.432586 87.32955 91.432586 C 101.392051 91.432586 113.933718 94.151336 124.949343 99.588836 C 135.964969 105.026336 144.496219 112.526337 150.543095 122.088837 C 156.58997 131.651338 159.616012 142.104463 159.616012 153.448214 L 132.475385 153.448214 C 132.475385 141.073213 128.537885 131.344046 120.662885 124.265921 C 112.782676 117.187795 101.673301 113.651337 87.32955 113.651337 C 74.017049 113.651337 63.63684 116.57842 56.183715 122.437795 C 48.73059 128.297171 45.001423 136.432588 45.001423 146.838838 C 45.001423 155.182589 48.54309 162.239881 55.621215 168.005506 C 62.69934 173.771131 74.746216 179.041965 91.761842 183.823215 C 108.777468 188.604465 122.089968 193.880507 131.699344 199.646133 C 141.308719 205.411758 148.43372 212.135717 153.074345 219.823217 C 157.71497 227.510717 160.037887 236.562801 160.037887 246.969052 C 160.037887 263.562803 153.569136 276.849262 140.631636 286.833637 C 127.694135 296.818013 110.392051 301.812804 88.7358 301.812804 C 74.673299 301.812804 61.548299 299.114888 49.360798 293.724262 C 37.173297 288.333637 27.772255 280.953428 21.16288 271.578428 C 14.553504 262.203427 11.251421 251.562802 11.251421 239.656551 L 38.392047 239.656551 C 38.392047 252.031552 42.964964 261.802386 52.10559 268.974261 C 61.246215 276.146137 73.454549 279.734678 88.7358 279.734678 C 102.985801 279.734678 113.907676 276.828428 121.506635 271.015928 C 129.100385 265.203428 132.89726 257.281552 132.89726 247.250302 C 132.89726 237.219051 129.381635 229.458634 122.350385 223.974259 C 115.313926 218.489884 102.563926 213.073217 84.095175 207.729466 Z M 291.694143 283.953429 C 281.569143 295.859679 266.709767 301.812804 247.116016 301.812804 C 230.897265 301.812804 218.543098 297.099263 210.058723 287.677387 C 201.574347 278.255512 197.28268 264.312803 197.18893 245.844052 L 197.18893 146.838838 L 223.209765 146.838838 L 223.209765 245.140927 C 223.209765 268.203428 232.584765 279.734678 251.334766 279.734678 C 271.209767 279.734678 284.428518 272.328428 290.991018 257.515927 L 290.991018 146.838838 L 317.006645 146.838838 L 317.006645 299.000304 L 292.256643 299.000304 Z M 492.261862 224.604467 C 492.261862 247.765927 486.964987 266.422178 476.371236 280.578428 C 465.777486 294.734679 451.433735 301.812804 433.334776 301.812804 C 414.866025 301.812804 400.334774 295.953429 389.741023 284.234679 L 389.741023 357.500307 L 363.725397 357.500307 L 363.725397 146.838838 L 387.491023 146.838838 L 388.756648 163.713839 C 399.350399 150.588839 414.06915 144.026338 432.912901 144.026338 C 451.19936 144.026338 465.657694 150.916964 476.298319 164.698214 C 486.938945 178.479465 492.261862 197.651341 492.261862 222.213842 Z M 466.246236 221.651342 C 466.246236 204.495091 462.589985 190.948216 455.277485 181.010715 C 447.964985 171.073215 437.928526 166.104464 425.178525 166.104464 C 409.428524 166.104464 397.616024 173.08884 389.741023 187.05759 L 389.741023 259.765927 C 397.522274 273.640928 409.428524 280.578428 425.459775 280.578428 C 437.928526 280.578428 447.845193 275.630511 455.204568 265.739886 C 462.563944 255.84926 466.246236 241.156551 466.246236 221.651342 Z M 595.652492 301.812804 C 575.027491 301.812804 558.24624 295.036762 545.30874 281.489887 C 532.366031 267.943011 525.89728 249.828427 525.89728 227.135717 L 525.89728 222.354467 C 525.89728 207.260716 528.782697 193.786757 534.548322 181.927382 C 540.313948 170.068006 548.376448 160.786756 558.735824 154.078422 C 569.095199 147.375297 580.324366 144.026338 592.418117 144.026338 C 612.199368 144.026338 627.574369 150.541964 638.543119 163.573214 C 649.51187 176.604465 654.996245 195.260716 654.996245 219.541967 L 654.996245 230.370093 L 551.918115 230.370093 C 552.293115 245.375302 556.673323 257.489886 565.063949 266.724261 C 573.454574 275.958637 584.121241 280.578428 597.058742 280.578428 C 606.246243 280.578428 614.027493 278.703428 620.402493 274.953428 C 626.777494 271.203428 632.355619 266.234678 637.136869 260.047177 L 653.027495 272.422178 C 640.277494 292.015929 621.152493 301.812804 595.652492 301.812804 Z M 592.418117 165.401339 C 581.918116 165.401339 573.105616 169.224256 565.980616 176.864882 C 558.855615 184.505507 554.449365 195.213841 552.761865 208.995091 L 628.980619 208.995091 L 628.980619 207.026341 C 628.230619 193.807591 624.668119 183.568007 618.293118 176.302381 C 611.918118 169.036756 603.293117 165.401339 592.418117 165.401339 Z M 765.840001 170.18259 C 761.9025 169.526339 757.636875 169.198214 753.043125 169.198214 C 735.980624 169.198214 724.402499 176.46384 718.308748 190.995091 L 718.308748 299.000304 L 692.293122 299.000304 L 692.293122 146.838838 L 717.605623 146.838838 L 718.027498 164.416964 C 726.558749 150.823214 738.652499 144.026338 754.30875 144.026338 C 759.37125 144.026338 763.215 144.682588 765.840001 145.995088 Z M 809.746253 299.000304 L 809.746253 166.948214 L 785.699377 166.948214 L 785.699377 146.838838 L 809.746253 146.838838 L 809.746253 131.229463 C 809.746253 114.916962 814.105628 102.307586 822.824378 93.401336 C 831.543129 84.495085 843.871255 80.036752 859.808755 80.036752 C 865.813964 80.036752 871.767089 80.833627 877.67334 82.427377 L 876.26709 103.526336 C 871.860839 102.682586 867.173339 102.260711 862.19938 102.260711 C 853.76188 102.260711 847.246255 104.719045 842.652504 109.64092 C 838.058754 114.562795 835.761879 121.620087 835.761879 130.807588 L 835.761879 146.838838 L 868.251464 146.838838 L 868.251464 166.948214 L 835.761879 166.948214 L 835.761879 299.000304 Z M 932.402509 299.000304 L 906.386883 299.000304 L 906.386883 146.838838 L 932.402509 146.838838 Z M 904.277508 106.479461 C 904.277508 102.260711 905.569174 98.698211 908.147299 95.791961 C 910.725425 92.885711 914.543133 91.432586 919.605633 91.432586 C 924.668134 91.432586 928.511884 92.885711 931.136884 95.791961 C 933.761884 98.698211 935.074384 102.260711 935.074384 106.479461 C 935.074384 110.698212 933.761884 114.213837 931.136884 117.026337 C 928.511884 119.838837 924.668134 121.245087 919.605633 121.245087 C 914.543133 121.245087 910.725425 119.838837 908.147299 117.026337 C 905.569174 114.213837 904.277508 110.698212 904.277508 106.479461 Z M 1016.527513 109.995086 L 1016.527513 146.838838 L 1044.938973 146.838838 L 1044.938973 166.948214 L 1016.527513 166.948214 L 1016.527513 261.312802 C 1016.527513 267.406553 1017.793138 271.974261 1020.324388 275.021136 C 1022.855639 278.068012 1027.168139 279.594053 1033.261889 279.594053 C 1036.261889 279.594053 1040.386889 279.031553 1045.642098 277.906553 L 1045.642098 299.000304 C 1038.793139 300.875304 1032.136889 301.812804 1025.668139 301.812804 C 1014.043138 301.812804 1005.277513 298.297179 999.371262 291.265929 C 993.465012 284.234679 990.511887 274.250303 990.511887 261.312802 L 990.511887 166.948214 L 962.808761 166.948214 L 962.808761 146.838838 L 990.511887 146.838838 L 990.511887 109.995086 Z M 1016.527513 109.995086 " stroke="#414672" stroke-width="17.460667" stroke-opacity="1" stroke-miterlimit="4"/></svg>