<svg xmlns="http://www.w3.org/2000/svg" xmlns:xlink="http://www.w3.org/1999/xlink" width="200" zoomAndPan="magnify" viewBox="0 0 150 149.999998" height="200" preserveAspectRatio="xMidYMid meet" version="1.0"><path stroke-linecap="butt" transform="matrix(0.138574, 0, 0, 0.138574, 1.858528, 40.692924)" fill="none" stroke-linejoin="miter" d="M 84.093422 207.740809 C 60.950384 201.088242 44.093457 192.88529 33.55083 183.188328 C 22.980015 173.491367 17.708702 161.511109 17.708702 147.247556 C 17.708702 131.123539 24.163946 117.790217 37.046246 107.24759 C 49.956736 96.704964 66.700907 91.433651 87.335139 91.433651 C 101.401371 91.433651 113.945405 94.139779 124.939053 99.580226 C 135.96089 105.020672 144.502109 112.518904 150.534521 122.074921 C 156.595121 131.659127 159.611327 142.117187 159.611327 153.449101 L 132.465474 153.449101 C 132.465474 141.0742 128.547225 131.34905 120.654349 124.27365 C 112.789662 117.198251 101.683259 113.646457 87.335139 113.646457 C 74.030006 113.646457 63.628324 116.578097 56.18647 122.441376 C 48.716427 128.304655 44.9955 136.423041 44.9955 146.824723 C 44.9955 155.16862 48.547294 162.244019 55.622693 167.994543 C 62.698092 173.773255 74.734727 179.044569 91.760787 183.836672 C 108.786847 188.600586 122.09198 193.871899 131.704375 199.650611 C 141.31677 205.401135 148.448546 212.138268 153.071516 219.833822 C 157.722675 227.501186 160.03416 236.549804 160.03416 246.979676 C 160.03416 263.554714 153.578915 276.859847 140.640237 286.838697 C 127.701559 296.817547 110.393611 301.806971 88.744581 301.806971 C 74.678349 301.806971 61.542349 299.129032 49.36477 293.716774 C 37.187191 288.332705 27.772118 280.947229 21.175929 271.588534 C 14.551551 262.20165 11.253457 251.574457 11.253457 239.650577 L 38.399311 239.650577 C 38.399311 252.025478 42.965903 261.807006 52.099088 268.966972 C 61.232272 276.155126 73.466229 279.735109 88.744581 279.735109 C 102.979946 279.735109 113.917216 276.831658 121.500014 271.024757 C 129.111001 265.189667 132.888306 257.268603 132.888306 247.261564 C 132.888306 237.226337 129.39289 229.446216 122.34568 223.977581 C 115.326658 218.480757 102.557113 213.0685 84.093422 207.740809 Z M 291.704237 283.963435 C 281.556254 295.859126 266.700735 301.806971 247.10949 301.806971 C 230.900907 301.806971 218.554194 297.099435 210.069353 287.684362 C 201.584512 278.269289 197.271619 264.315813 197.187053 245.852122 L 197.187053 146.824723 L 223.205353 146.824723 L 223.205353 245.147401 C 223.205353 268.205873 232.592237 279.735109 251.337816 279.735109 C 271.210949 279.735109 284.431516 272.321444 290.999516 257.522302 L 290.999516 146.824723 L 317.017816 146.824723 L 317.017816 298.988087 L 292.268014 298.988087 Z M 492.267841 224.597736 C 492.267841 247.768963 486.968339 266.429976 476.369335 280.580774 C 465.77033 294.731572 451.42221 301.806971 433.324974 301.806971 C 414.861283 301.806971 400.34403 295.943693 389.745026 284.245324 L 389.745026 357.508121 L 363.726726 357.508121 L 363.726726 146.824723 L 387.489919 146.824723 L 388.758417 163.709839 C 399.357421 150.602028 414.071996 144.034028 432.902142 144.034028 C 451.1967 144.034028 465.657575 150.912105 476.312957 164.696448 C 486.94015 178.480792 492.267841 197.649204 492.267841 222.229873 Z M 466.249541 221.666096 C 466.249541 204.499092 462.584991 190.94026 455.284082 181.017787 C 447.954983 171.067127 437.919755 166.105891 425.178399 166.105891 C 409.420837 166.105891 397.609713 173.096723 389.745026 187.050199 L 389.745026 259.777409 C 397.525146 273.646319 409.420837 280.580774 425.460288 280.580774 C 437.919755 280.580774 447.842227 275.619538 455.199515 265.753444 C 462.556803 255.859161 466.249541 241.144585 466.249541 221.666096 Z M 595.66451 301.806971 C 575.030278 301.806971 558.257918 295.04165 545.31924 281.482817 C 532.380562 267.952173 525.897128 249.826749 525.897128 227.134731 L 525.897128 222.342628 C 525.897128 207.261599 528.77239 193.787332 534.551103 181.91983 C 540.301626 170.052328 548.363635 160.7782 558.737128 154.069255 C 569.082433 147.3885 580.329781 144.034028 592.422793 144.034028 C 612.21136 144.034028 627.574278 150.54565 638.539737 163.568895 C 649.505197 176.592139 655.002021 195.253152 655.002021 219.551933 L 655.002021 230.376448 L 551.915429 230.376448 C 552.281884 245.372912 556.679343 257.494113 565.051429 266.711864 C 573.451703 275.957804 584.107085 280.580774 597.045763 280.580774 C 606.235325 280.580774 614.015446 278.692122 620.414313 274.943006 C 626.784991 271.19389 632.366381 266.232654 637.130295 260.059298 L 653.028802 272.434199 C 640.287446 292.025444 621.147222 301.806971 595.66451 301.806971 Z M 592.422793 165.40117 C 581.908356 165.40117 573.113437 169.234852 565.98166 176.874028 C 558.849884 184.513204 554.452424 195.224963 552.761094 209.009307 L 628.98372 209.009307 L 628.98372 207.036088 C 628.222622 193.815521 624.670828 183.554783 618.300149 176.310251 C 611.929471 169.03753 603.303686 165.40117 592.422793 165.40117 Z M 765.840544 170.193273 C 761.894106 169.51674 757.637591 169.206663 753.04281 169.206663 C 735.988561 169.206663 724.402947 176.451195 718.314158 190.996637 L 718.314158 298.988087 L 692.295857 298.988087 L 692.295857 146.824723 L 717.609437 146.824723 L 718.032269 164.41456 C 726.573488 150.827539 738.666501 144.034028 754.311308 144.034028 C 759.385299 144.034028 763.218981 144.682371 765.840544 146.007247 Z M 809.758758 298.988087 L 809.758758 166.951556 L 785.685488 166.951556 L 785.685488 146.824723 L 809.758758 146.824723 L 809.758758 131.236294 C 809.758758 114.914955 814.09984 102.314543 822.83838 93.406869 C 831.548732 84.499196 843.867256 80.045359 859.82214 80.045359 C 865.798174 80.045359 871.774208 80.834646 877.665676 82.44141 L 876.256234 103.526663 C 871.858775 102.680998 867.179427 102.258166 862.190002 102.258166 C 853.761539 102.258166 847.249917 104.710595 842.655136 109.643642 C 838.060355 114.576689 835.777058 121.623899 835.777058 130.813462 L 835.777058 146.824723 L 868.250603 146.824723 L 868.250603 166.951556 L 835.777058 166.951556 L 835.777058 298.988087 Z M 932.408406 298.988087 L 906.390105 298.988087 L 906.390105 146.824723 L 932.408406 146.824723 Z M 904.275942 106.486492 C 904.275942 102.258166 905.572629 98.706372 908.137813 95.802921 C 910.731187 92.871281 914.53668 91.433651 919.610672 91.433651 C 924.656474 91.433651 928.518346 92.871281 931.139908 95.802921 C 933.76147 98.706372 935.086345 102.258166 935.086345 106.486492 C 935.086345 110.686629 933.76147 114.210234 931.139908 117.029118 C 928.518346 119.848002 924.656474 121.257444 919.610672 121.257444 C 914.53668 121.257444 910.731187 119.848002 908.137813 117.029118 C 905.572629 114.210234 904.275942 110.686629 904.275942 106.486492 Z M 1016.523907 109.981908 L 1016.523907 146.824723 L 1044.938259 146.824723 L 1044.938259 166.951556 L 1016.523907 166.951556 L 1016.523907 261.299607 C 1016.523907 267.416585 1017.792405 271.983178 1020.329401 275.027572 C 1022.866397 278.071967 1027.179289 279.594165 1033.268079 279.594165 C 1036.256096 279.594165 1040.399856 279.030388 1045.64298 277.902834 L 1045.64298 298.988087 C 1038.793092 300.87674 1032.140525 301.806971 1025.657092 301.806971 C 1014.043289 301.806971 1005.27656 298.283366 999.385092 291.264345 C 993.465435 284.245324 990.505607 274.238285 990.505607 261.299607 L 990.505607 166.951556 L 962.795976 166.951556 L 962.795976 146.824723 L 990.505607 146.824723 L 990.505607 109.981908 Z M 1016.523907 109.981908 " stroke="#414672" stroke-width="17.460667" stroke-opacity="1" stroke-miterlimit="4"/></svg>